<svg xmlns="http://www.w3.org/2000/svg" xmlns:xlink="http://www.w3.org/1999/xlink" preserveAspectRatio="xMidYMid meet" width="430" height="570" viewBox="0 0 430 570" style="width:100%;height:100%"><defs><animate attributeType="XML" attributeName="opacity" dur="0s" from="0" to="1" xlink:href="#time_group"/></defs><g id="_R_G"><g id="_R_G_L_7_G" transform=" translate(238.904, 522.963) translate(-31.205, -33.516)"><path id="_R_G_L_7_G_D_0_P_0" fill="#efa579" fill-opacity="1" fill-rule="nonzero" d=" M1.7 57.28 C12.17,34.71 6.74,14.58 6.79,1.58 C8.4,0.25 15.79,1.95 18.56,3.29 C20.47,10.4 17.25,36.17 13.35,47.9 C12.99,50.39 10.21,56.44 12.66,57.53 C15.4,57.74 17.69,60.47 20.43,60.97 C25.63,61.93 30.93,61.55 36.15,62.23 C43.28,63.15 50.45,62.92 57.61,62.93 C57.82,62.93 58.03,62.91 58.24,62.94 C59.71,63.18 62.16,62.67 62.08,64.54 C62.02,66.06 59.6,65.36 58.24,65.37 C44.96,65.42 31.69,65.36 18.41,65.44 C15.82,65.46 7.13,66.78 5.53,65.81 C1.03,64.49 0.25,62.74 1.7,57.28z "/></g><g id="_R_G_L_6_G" transform=" translate(242.119, 522.786) translate(-27.915, -32.004)"><path id="_R_G_L_6_G_D_0_P_0" fill="#fbc698" fill-opacity="1" fill-rule="nonzero" d=" M53.44 60.39 C47.44,58.79 9.85,52.62 11.24,50.29 C9.85,45.29 24.76,6.66 25.58,3.43 C21.92,1.54 16.01,0.25 12.05,1.96 C12.71,6.44 4.43,49.87 3.59,54.82 C0.25,61.97 54.42,63.76 55.58,62.69 C55.46,62.16 54.84,60.76 53.44,60.39z "/></g><g id="_R_G_L_5_G" transform=" translate(242.36, 374.338) translate(-39.338, -118.986)"><path id="_R_G_L_5_G_D_0_P_0" fill="#6d584f" fill-opacity="1" fill-rule="nonzero" d=" M59.65 1.3 C57.61,0.25 55.97,1.49 54.36,2.35 C46.67,6.44 38.41,8.59 29.85,9.85 C25.3,10.52 6.84,13.92 2.07,13.92 C0.25,14.51 35.66,57.3 35.26,58.84 C31.23,74.61 30.96,90.78 30.24,106.88 C29.57,122.09 31.48,137.26 30.99,152.49 C30.82,157.72 24.17,175.2 22.77,179.99 C19.13,192.49 16.13,205.03 17.56,218.19 C18.08,222.96 20.08,232.75 20.09,232.95 C21.79,233.24 37.33,237.72 38.16,235.03 C45.42,212.63 50.04,198.9 45.42,175.99 C44.56,171.52 45.54,164.19 48.73,159.01 C58.41,138.6 69.51,93.48 70.37,88.84 C71.9,80.49 78.43,49.97 72.52,29.26 C70.29,18.99 65.4,9.95 59.65,1.3z "/></g><g id="_R_G_L_4_G" transform=" translate(215, 285) translate(-215, -375)"><g id="_R_G_L_4_G_L_5_G" transform=" translate(97.62, 413.246) translate(-49.938, -36.478)"><path id="_R_G_L_4_G_L_5_G_D_0_P_0" fill="#6d584f" fill-opacity="1" fill-rule="nonzero" d=" M1.12 45.4 C4.57,39.25 10.14,35.19 15.59,31.11 C29.7,20.53 45.18,12.21 60.84,4.22 C61.01,4.13 61.25,4.19 61.46,4.18 C99.32,-10.39 89.23,15.43 97.19,26.29 C99.63,29.61 97.89,36.74 92.89,39.33 C86.9,41.78 80.7,43.59 74.49,45.38 C65.15,48.08 53.92,47.57 44.4,49.12 C40.48,49.76 36.7,51.06 33.99,51.43 C37.41,50.84 41.92,49.4 46.6,48.76 C57.45,47.27 68.31,46.57 79.22,48.14 C80.8,47.87 82.3,48.5 83.86,48.55 C87.52,49.62 91.31,50.29 94.74,52.06 C93.91,54.45 87.66,71.54 86.05,72 C81.1,72.71 36.6,68.46 23.28,65.72 C18.91,64.82 14.77,63.33 10.77,61.41 C6.72,59.47 3.95,56.29 1.67,52.49 C0.25,50.11 1.72,47.72 1.12,45.4z "/></g><g id="_R_G_L_4_G_L_4_G" transform=" translate(88.429, 437.475) translate(-42.525, -15.558)"><path id="_R_G_L_4_G_L_4_G_D_0_P_0" fill="#47353a" fill-opacity="1" fill-rule="nonzero" d=" M84.67 30.54 C76.55,30.87 22.61,26.3 14.42,23.02 C8.33,20.58 3.17,17.07 1.26,10.18 C0.25,6.54 1.31,3.39 2.9,0.25 C3.6,0.82 3.94,1.63 3.9,2.47 C3.55,9.39 8.29,12.65 13.42,15.41 C22.29,21.73 76.45,26.71 84.67,26.2 C84.62,28.74 84.8,30.54 84.67,30.54z "/></g><g id="_R_G_L_4_G_L_3_G" transform=" translate(173.506, 445.112) translate(-36.17, -13.646)"><path id="_R_G_L_4_G_L_3_G_D_0_P_0" fill="#fbc698" fill-opacity="1" fill-rule="nonzero" d=" M67.65 9.72 C65.41,10.28 64.18,11.93 63.22,13.86 C62.15,16.01 60.73,17.03 58.19,16 C56.57,15.34 20.77,3.52 12.47,0.25 C11.97,0.41 0.25,7.86 2.31,17.71 C7.67,18.8 14.41,18.94 19.82,19.66 C33.22,21.45 46.84,22 59.73,26.67 C60.76,27.04 61.8,27 62.85,26.95 C67.47,25.76 69.42,18.98 70.25,16.97 C72.09,12.55 71.81,11.77 67.65,9.72z "/></g><g id="_R_G_L_4_G_L_2_G" transform=" translate(177.762, 470.227) translate(-39.779, -29.985)"><path id="_R_G_L_4_G_L_2_G_D_0_P_0" fill="#efa579" fill-opacity="1" fill-rule="nonzero" d=" M78.03 54.74 C71.24,22.52 75.01,17.3 75.09,8.07 C75.15,1.81 73.21,0.25 67.01,0.94 C73.56,5.24 66.44,12.67 66.34,14.17 C65.45,15.71 60.42,19.24 59.09,16.89 C57.83,13.26 11.58,9.04 1.42,8.8 C0.25,9.81 0.52,12.7 0.51,12.92 C1.43,13.07 2.35,13.35 3.27,13.35 C17.67,13.34 31.99,14.56 46.34,15.6 C56.28,16.62 59.62,21.57 60.42,23.05 C61.67,24.96 69.65,48.55 70.68,54.76 C71.33,58.66 71.78,59.11 75.81,59.72 C78.06,58.73 79.31,57.09 78.03,54.74z "/></g><g id="_R_G_L_4_G_L_1_G" transform=" translate(139.965, 439.241) translate(-10.088, -10.663)"><path id="_R_G_L_4_G_L_1_G_D_0_P_0" fill="#e27226" fill-opacity="1" fill-rule="nonzero" d=" M19.93 3.14 C17.22,5.28 10.37,10.82 10.03,20.45 C7.92,20.5 0.25,21.08 0.85,19.56 C1.26,12.28 4.42,5.82 12.55,0.25 C15.13,0.91 17.54,2 19.93,3.14z "/></g><g id="_R_G_L_4_G_L_0_G" transform=" translate(135.329, 450.819) translate(-5.217, -2.933)"><path id="_R_G_L_4_G_L_0_G_D_0_P_0" fill="#8c381d" fill-opacity="1" fill-rule="nonzero" d=" M9.79 1.14 C9.78,2.08 10.18,5.62 10.13,5.62 C7.17,5.58 2.36,4.86 0.46,4.57 C0.25,2.98 0.35,1.61 0.61,0.25 C3.77,0.55 4.84,0.72 9.79,1.14z "/></g></g><g id="_R_G_L_3_G" transform=" translate(159.367, 371.215) translate(-81.196, -118.007)"><path id="_R_G_L_3_G_D_0_P_0" fill="#49393d" fill-opacity="1" fill-rule="nonzero" d=" M156.45 118.21 C156.25,111.99 156.86,105.79 157,99.59 C157.31,85.74 158.49,72.04 162.13,58.63 C162.14,49.96 159.77,44.56 158.72,42.85 C156.85,39.81 153.18,19.87 127.11,15.52 C125.97,15.48 84.67,0.63 84.34,0.25 C82.32,1.99 81.19,4.27 80.28,6.7 C78.4,10.46 76.63,14.29 72.9,16.68 C71.17,17.6 32.14,36.63 30.5,37.74 C56.41,38.22 69.91,63.6 60.96,71.3 C54.85,73.22 8.27,83.24 0.25,85.79 C16.33,82.09 32.56,81.14 48.94,82.69 C50.41,82.46 51.65,82.19 53.34,81.83 C56.79,80.62 109.96,51.21 116.69,48.59 C125.26,46.29 140.34,40.84 142.84,51.57 C142.49,74.09 141.26,88.51 146.64,141.98 C147.92,149.97 148.44,158.11 146.88,166.2 C145.8,168.83 144.73,171.47 143.64,174.1 C134.26,197.42 136.29,213.8 136.41,234.56 C139.58,235.18 144.4,235.39 147.22,235.76 C147.24,235.74 147.22,235.62 147.19,235.43 C147.26,234.84 144.28,222.27 143.52,214.81 C143.39,213.48 143.32,212.31 143.36,211.41 C143.66,203.75 144.67,196.11 147.07,188.71 C148.98,182.8 156.71,163.5 156.89,160.19 C157.11,155.88 157.54,151.56 157.39,147.25 C157.06,137.57 156.76,127.89 156.45,118.21z "/></g><g id="_R_G_L_2_G" transform=" translate(233.307, 491.326) translate(-8.128, -3.141)"><path id="_R_G_L_2_G_D_0_P_0" fill="#e06923" fill-opacity="1" fill-rule="nonzero" d=" M14.61 6.03 C10.82,5.73 4.44,4.76 0.65,4.46 C0.65,3.97 0.25,1.72 0.26,0.25 C2.66,0.46 14.84,1.74 16.01,2.15 C15.68,3.2 15.13,4.55 14.61,6.03z "/></g><g id="_R_G_L_1_G" transform=" translate(220.33, 490.162) translate(-6.179, -2.827)"><path id="_R_G_L_1_G_D_0_P_0" fill="#8c381d" fill-opacity="1" fill-rule="nonzero" d=" M0.43 0.43 C2.57,0.25 9.46,1.06 11.29,1.1 C11.55,2.9 11.8,3.35 12.11,5.4 C7.86,4.41 4.93,4.55 0.33,3.69 C0.25,2.35 0.36,1.54 0.43,0.43z "/></g><g id="_R_G_L_0_G" transform=" translate(215, 285) translate(-215, -375)"><g id="_R_G_L_0_G_L_27_G" transform=" translate(202.987, 312.693) translate(-28.69, -31.675)"><path id="_R_G_L_0_G_L_27_G_D_0_P_0" fill="#c4d0cc" fill-opacity="1" fill-rule="nonzero" d=" M0.25 51.9 C8.2,43.78 11.17,32.95 8.61,22.23 C7.58,17.95 2.71,5.38 1.64,1.11 C3.16,0.25 9.63,3.77 11.09,4.24 C14.9,7.46 16.48,10.68 17.72,18.14 C18.9,25.19 19.8,32.29 21.84,39.17 C29.74,51.48 57.13,54.11 56.95,55.9 C40.91,63.1 6.37,59.63 0.25,51.9z "/></g><g id="_R_G_L_0_G_L_26_G" transform=" translate(217.095, 306.756) translate(-33.065, -31.565)"><path id="_R_G_L_0_G_L_26_G_D_0_P_0" fill="#e9e7d1" fill-opacity="1" fill-rule="nonzero" d=" M58.14 27.45 C58.44,25.03 65.88,9.74 63.76,7.69 C63.1,5.88 53.74,10.73 52.27,8.43 C46.53,4.85 41.07,0.25 34.13,2.74 C33.42,3 7.69,12.2 0.28,12.34 C0.25,12.44 5.7,16.84 6.42,21.23 C7.8,29.69 8.83,38.22 11.35,46.47 C15.36,59.05 43.63,61.3 46.89,61.56 C49.26,62.88 62.6,59.27 63.36,57.62 C54.95,41.89 57.17,35.21 58.14,27.45z "/></g><g id="_R_G_L_0_G_L_25_G" transform=" translate(222.723, 348.845) translate(-40.384, -16.282)"><path id="_R_G_L_0_G_L_25_G_D_0_P_0" fill="#e46d26" fill-opacity="1" fill-rule="nonzero" d=" M65.05 0.25 C63.99,0.83 10.02,14.07 2.15,15.37 C0.78,16.18 0.56,19.91 0.25,21.93 C38.57,32.31 59.04,22.13 67.31,19.34 C71.9,17.79 75.88,14.94 80.52,13.54 C79.05,9.72 71.05,4.63 65.05,0.25z "/></g><g id="_R_G_L_0_G_L_24_G" transform=" translate(197.415, 347.523) translate(-35.157, -15.386)"><path id="_R_G_L_0_G_L_24_G_D_0_P_0" fill="#8c381d" fill-opacity="1" fill-rule="nonzero" d=" M68.99 4.78 C49.03,9.85 23.42,8.66 12.69,0.36 C12.06,0.25 3.56,7.35 0.25,11.32 C1.42,12.23 2.53,12.88 2.83,13.36 C3.7,13.91 4.61,14.43 5.49,14.93 C9.58,17.25 30.51,30.52 48.21,24.86 C63.11,20.69 70.06,5.85 68.99,4.78z "/></g><g id="_R_G_L_0_G_L_23_G" transform=" translate(332.941, 303.717) translate(-82.263, -71.388)"><path id="_R_G_L_0_G_L_23_G_D_0_P_0" fill="#efa579" fill-opacity="1" fill-rule="nonzero" d=" M125.2 129.66 C119.29,127.15 64.31,110.28 44.1,100.47 C38.38,97.69 33.6,93.83 29.86,88.75 C20.54,76.09 12.26,62.81 6.61,48.04 C5.89,46.14 3.22,25.81 1.35,20.43 C0.25,17.27 1.05,6.39 0.82,3.26 C0.74,2.22 0.78,0.97 1.98,0.57 C2.96,0.25 3.79,1.02 4.43,1.72 C7.45,5.02 9.69,8.83 11.41,12.94 C17.84,28.34 23.41,44 26.34,60.5 C28.77,74.24 36.73,84.21 47.91,91.94 C61.21,101.13 124.96,124.75 125.13,124.79 C125.69,124.74 139.77,142.53 159.18,120.26 C161.82,117.08 156.29,103.58 156.01,102.25 C155.77,101.13 155.37,99.93 156.45,99.8 C157.67,99.65 158.87,101.58 159.14,102.3 C159.89,103.81 164.28,117.36 162.85,121.2 C162.21,124.69 151.65,130.91 145.65,133.94 C141.82,135.87 138.17,136 134.26,133.86 C131.36,132.27 128.64,130.13 125.2,129.66z "/></g><g id="_R_G_L_0_G_L_22_G" transform=" translate(325.046, 291.319) translate(-83.097, -74.379)"><path id="_R_G_L_0_G_L_22_G_D_0_P_0" fill="#fbc698" fill-opacity="1" fill-rule="nonzero" d=" M164.96 127.7 C163.71,121.53 158.35,116.61 156.47,117.24 C154.5,118.4 160.49,122.51 160.63,127.63 C161.61,135.67 158.39,138.55 156.25,139.18 C158.08,133.19 156.92,123.18 151.2,123.76 C150.08,124.39 153.91,128.68 153.97,130.02 C156.07,140.25 141.8,140.08 139.52,137.14 C137.81,134.95 138.44,129.54 143.21,126.24 C144.22,125.49 145.83,121.59 143.81,121.71 C141.18,122.43 137.2,124.68 136.13,127.09 C134.47,130.8 134.51,134.57 134.72,138.54 C131.42,136.66 71.31,103.65 59.54,97.1 C55.41,94.79 52.76,91.5 51.35,86.82 C43.55,60.93 32.49,36.39 20.01,12.45 C15.81,4.41 9.33,0.29 0.25,0.25 C0.25,6.32 8.47,30.65 11.7,28.03 C12.4,27.4 10.45,20.27 10.52,16.33 C14.42,19.98 16.86,23.27 18.61,27.42 C25.14,42.93 31.01,58.68 33.86,75.37 C35.61,85.56 40.11,94.41 47.63,101.4 C58.16,111.2 70.83,117.62 84.02,123.07 C96.19,128.1 132.97,140.25 134.33,140.55 C139.22,146.15 147.18,148.51 151.99,147.55 C163.89,142 165.94,133.77 164.96,127.7z "/></g><g id="_R_G_L_0_G_L_21_G" transform=" translate(92.423, 293.626) translate(-86.863, -76.313)"><path id="_R_G_L_0_G_L_21_G_D_0_P_0" fill="#efa579" fill-opacity="1" fill-rule="nonzero" d=" M173.17 25.87 C173.06,25.35 171.31,3.22 166.52,0.25 C151.23,1.28 145.37,12.72 143.7,16.9 C143.32,17.26 122.48,89.13 122.04,91.45 C122.33,92.56 122.73,93.11 123.55,93.78 C127.35,96.88 127.77,99.71 125.05,103.88 C123.82,105.76 122.29,107.3 120.44,108.59 C115.65,111.92 110.31,114.19 105.02,116.53 C86.77,124.61 42.9,142.33 39.04,143.08 C34.91,143.88 24.23,148.6 14.61,139.9 C9.68,134.38 17.23,122.72 15.32,119.85 C14.43,118.51 8.08,131.82 9.27,139.45 C2.9,137.72 9.74,119.01 7.87,118.4 C5.28,117.57 0.25,134.88 6.42,142.96 C9.9,146.56 24.61,152.38 40.51,149.18 C46.42,145.35 53.51,141.19 62.33,138.47 C81.34,132.62 100.3,126.69 118.35,118.21 C124.39,115.36 130.11,112.15 134.31,106.69 C144.59,93.32 151.61,78.39 155.76,62.09 C157.13,56.71 158.21,51.25 159.45,45.83 C159.55,45.39 159.34,44.57 160.09,44.69 C160.41,44.74 160.62,45.52 160.88,45.96 C162.09,47.13 163.4,46.67 164.69,46.16 C168.36,44.7 170.57,41.9 171.94,38.31 C173.48,34.27 173.41,30.08 173.17,25.87z "/></g><g id="_R_G_L_0_G_L_20_G" transform=" translate(76.297, 337.5) translate(-57.961, -28.985)"><path id="_R_G_L_0_G_L_20_G_D_0_P_0" fill="#fbc698" fill-opacity="1" fill-rule="nonzero" d=" M112.59 2.59 C111.49,1.8 110.37,1.03 109.26,0.25 C106.79,4.09 103.18,6.52 99.2,8.56 C84.52,16.1 43.07,40.53 36.04,43.42 C35.34,43.93 30.18,46.53 29.21,45.52 C27.15,45.03 27.2,36.39 23.49,33.89 C22.27,32.78 20.12,31.09 18.84,31.83 C16.41,33.87 18.94,35.89 21.38,37.68 C22.51,38.51 23.57,40.65 23.22,42.29 C23.3,46.8 21.97,49.41 11.89,49.74 C0.25,47.62 8.9,33.91 7.76,32.96 C6.64,32.03 0.55,39.87 3.65,48.51 C8.11,57.72 22.94,53.75 24.39,53.47 C28.57,52.65 67.82,36.17 81.34,30.86 C90.92,27.1 100.58,23.48 109.14,17.58 C111.92,15.66 113.78,13.05 114.78,9.85 C115.67,6.96 115.19,4.44 112.59,2.59z "/></g><g id="_R_G_L_0_G_L_19_G" transform=" translate(219.155, 249.801) translate(-46.796, -34.178)"><path id="_R_G_L_0_G_L_19_G_D_0_P_0" fill="#e9e7d1" fill-opacity="1" fill-rule="nonzero" d=" M78.68 28.45 C74.86,21.12 72.31,14.64 70.54,6.59 C70.31,5.56 68.44,1.85 68.03,1.56 C66.25,0.25 64.22,1.06 62.31,0.91 C62.09,1.18 61.98,1.49 61.98,1.83 C62.61,4.49 63.35,7.13 63.65,9.85 C65.1,22.99 56.13,32.22 43.04,31.07 C41.99,30.98 40.9,30.8 40.01,31.44 C39.93,31.4 39.84,31.35 39.76,31.31 C36.49,30.26 33.15,29.34 30.49,26.98 C27.86,25.23 25.51,23.16 23.27,20.94 C18.61,16.31 15.31,10.71 11.77,5.27 C10.79,3.77 9.8,2.3 8.06,1.58 C4.63,1.7 0.25,1.87 0.89,1.91 C3.51,3.05 3.68,5.36 4.42,8.06 C5.32,11.32 6.01,14.59 6.51,17.94 C6.77,19.65 6.22,32.19 7.25,35.14 C5.58,44.35 0.52,68.11 30.07,66.42 C33.85,66.47 37.41,65.2 40.87,63.98 C42.63,63.7 42.99,63.65 43.6,64.48 C43.89,64.61 44.21,64.67 44.53,64.64 C48.56,62.86 52.81,62.54 57.15,62.75 C61.87,62.99 66.5,64.1 71.22,64.3 C77.12,66.27 84.54,60.45 85.16,59.21 C93.34,46.76 82.23,35.26 78.68,28.45z "/></g><g id="_R_G_L_0_G_L_18_G" transform=" translate(212.435, 266.189) translate(-45.167, -29.701)"><path id="_R_G_L_0_G_L_18_G_D_0_P_0" fill="#c4d0cc" fill-opacity="1" fill-rule="nonzero" d=" M71.18 42.43 C65.81,40.47 61.68,34.12 50.8,38.77 C45.17,45.02 1.73,59.01 12.41,2.8 C12.09,6.13 12.82,9.45 12.53,12.78 C11.9,20.02 8.61,24.39 0.5,29.16 C3.28,34.54 5.12,41.22 7.47,43.06 C21.73,59.64 39.82,50.93 41.17,50.47 C48.08,47.5 51.98,41.03 54.11,40.82 C54.24,40.83 57.48,43 60.99,44.26 C63.61,45.2 66.11,46.49 68.66,47.63 C75.61,50.92 78.16,48.2 79.04,47.76 C81.6,46.45 89.5,40.91 90.09,38.59 C88.62,39.71 79.35,45.74 71.18,42.43z "/></g><g id="_R_G_L_0_G_L_17_G" transform=" translate(209.066, 217.738) translate(-26.131, -30.021)"><path id="_R_G_L_0_G_L_17_G_D_0_P_0" fill="#fdcfa4" fill-opacity="1" fill-rule="nonzero" d=" M51.76 29.31 C51.76,29.14 51.75,28.98 51.73,28.81 C50.69,28.83 49.62,28.71 48.6,28.89 C44.36,29.62 39.17,26.52 37.82,22.36 C36.83,20.28 35.4,11.7 35.13,6.88 C34.94,5.42 34.07,1.8 34.07,1.69 C31.84,0.25 27.68,5.68 26.61,7.69 C25.85,9.09 25.67,10.68 25.32,12.21 C23.98,18.06 21.57,23.34 17.04,27.42 C12.84,31.21 9.94,31.54 4.89,28.99 C4.5,28.8 4.48,29.3 4.06,29.31 C3.02,29.31 2.27,29.31 1.05,29.41 C0.25,30.31 1.38,31.91 1.85,32.71 C6.7,40.98 12.09,48.78 20.6,53.81 C27.68,58.33 35.08,59.79 42.99,56.04 C44.62,55.27 49.26,49.89 49.95,48.24 C51.9,43.62 52.01,38.8 50.87,33.96 C50.45,32.21 50.38,30.65 51.76,29.31z  M46.04 50.92 C46.04,50.93 46.04,50.93 46.03,50.93 C46.04,50.92 46.04,50.92 46.04,50.92 C46.04,50.92 46.04,50.92 46.04,50.92z  M26.61 7.69 C25.45,8.79 25.67,10.68 25.32,12.21 "/></g><g id="_R_G_L_0_G_L_16_G" transform=" translate(247.415, 232.803) translate(-7.275, -15.868)"><path id="_R_G_L_0_G_L_16_G_D_0_P_0" fill="#dd7123" fill-opacity="1" fill-rule="nonzero" d=" M0.25 0.25 C0.85,0.25 1.9,0.26 2.51,0.26 C5.19,18.01 9.97,21.63 13.82,30.26 C14.3,31.49 3.22,21.38 0.25,0.25z "/></g><g id="_R_G_L_0_G_L_15_G" transform=" translate(209.477, 232.759) translate(-29.311, -16.496)"><path id="_R_G_L_0_G_L_15_G_D_0_P_0" fill="#e67225" fill-opacity="1" fill-rule="nonzero" d=" M54.5 0.27 C51.27,0.38 53.24,0.25 51.12,0.38 C53.23,7.47 54.19,17.81 48.85,23.77 C46.79,26.39 43.95,27.38 40.8,28.1 C34.38,29.58 28.88,27.34 23.47,24.4 C14.99,18.58 8.54,10.02 4.07,0.87 C2.87,0.84 1.69,1.02 0.25,0.93 C2.38,4.17 4.68,7.31 6.65,10.65 C14.89,24.63 28.52,32.74 35.84,32.16 C43.29,32.47 49.93,30.13 53.82,23.2 C57.88,15.97 58.37,7.87 54.5,0.27z "/></g><g id="_R_G_L_0_G_L_14_G" transform=" translate(175.338, 241.608) translate(-9.149, -24.547)"><path id="_R_G_L_0_G_L_14_G_D_0_P_0" fill="#e26f27" fill-opacity="1" fill-rule="nonzero" d=" M10.14 0.25 C9.57,0.32 8.28,0.37 5.89,0.5 C10.14,4.87 18.05,46.1 0.25,46.21 C0.32,47.21 0.68,48.08 1.33,48.83 C4.51,48.84 11.35,44.44 12.93,38.08 C17.2,27.89 12.13,6.08 10.14,0.25z "/></g><g id="_R_G_L_0_G_L_13_G" transform=" translate(213.226, 223.298) translate(-12.324, -3.006)"><path id="_R_G_L_0_G_L_13_G_D_0_P_0" fill="#e0986c" fill-opacity="1" fill-rule="nonzero" d=" M24.4 1.82 C22.48,1.98 20.82,2.89 19.08,3.59 C14.87,5.27 8.47,5.76 5.95,5.02 C4.16,4.14 3.91,3.22 0.25,2.66 C0.61,1.72 2.39,1.36 2.98,1.52 C9.4,3.26 15.13,3.66 21.34,0.76 C22.43,0.25 23.59,0.84 24.4,1.82z "/></g><g id="_R_G_L_0_G_L_12_G" transform=" translate(140.006, 164.695) translate(-18.362, -35.023)"><path id="_R_G_L_0_G_L_12_G_D_0_P_0" fill="#e26f27" fill-opacity="1" fill-rule="nonzero" d=" M9.53 69.76 C7.7,69.8 6.49,68.67 5.16,67.56 C23.23,53.33 13.53,41.77 10.97,38.47 C0.25,24.63 14.36,-3.17 41.69,1.99 C41.18,5.74 41.95,9.41 42.47,13.1 C24.11,10.58 30.47,40.21 29.94,45.77 C28.95,56.09 29.11,62.95 9.53,69.76z "/></g><g id="_R_G_L_0_G_L_11_G" transform=" translate(179.276, 157.863) translate(-36.753, -55.539)"><path id="_R_G_L_0_G_L_11_G_D_0_P_0" fill="#8c381d" fill-opacity="1" fill-rule="nonzero" d=" M33.75 11.54 C30.73,15.04 29.31,19.34 27.88,23.59 C27.28,25.35 27.11,27.25 26.74,29.09 C24.89,28.72 23.03,28.65 21.17,28.91 C18.32,31.49 18.01,36.3 20.43,40.3 C25.22,41.53 27.94,45.03 28.98,47.51 C30.81,51.68 45.43,85.28 0.82,108.06 C-4.77,112.3 43.23,111.55 51.63,107.25 C55.73,99.43 57.16,90.97 57.83,82.3 C58.11,78.77 54.81,70.23 50.16,67.56 C46.39,65.39 43.94,66.1 40.21,63.95 C38.57,63.51 35.66,62.48 34.96,61.4 C33.85,59.67 33.17,57.78 33.01,55.78 C32.81,53.13 33.25,50.53 36.13,49.52 C38.94,48.53 40.67,50.47 42.16,52.46 C43.12,53.72 43.48,55.33 44.26,56.7 C45.13,58.22 45.91,60.54 47.99,59.87 C50.23,59.16 49.16,56.88 48.88,55.19 C48.72,54.15 48.34,53.15 48.15,52.12 C47.35,47.72 47.53,43.33 47.98,38.91 C48.44,34.5 53.91,28.11 53.91,27.98 C55.17,27.31 66.98,25.2 70.64,22.04 C71.68,20.33 73.26,18.79 72.42,16.48 C69.69,16.82 68.8,19.91 66.29,20.57 C66.27,20.5 66.26,20.44 66.25,20.36 C63.34,19.16 60.51,18.92 57.72,20.67 C56.78,21.26 55.83,21.85 54.82,22.31 C49.82,24.59 44.67,26.03 39.23,24.71 C35.26,23.75 34.46,22.2 35.77,18.29 C36.28,16.76 37.1,15.44 38.2,14.27 C40.14,12.19 49.36,6.09 51.52,4.44 C52,4.08 53.87,1.79 53.56,1.07 C53.27,0.41 50.9,0.25 50.26,0.25 C48.66,0.25 46.27,1.73 44.79,2.25 "/></g><g id="_R_G_L_0_G_L_10_G" transform=" translate(222.058, 154.491) translate(-46.212, -55.125)"><path id="_R_G_L_0_G_L_10_G_D_0_P_0" fill="#e46d26" fill-opacity="1" fill-rule="nonzero" d=" M70.97 100.78 C78.22,100.76 85.06,100.04 92.17,96.55 C85.19,95.93 79.84,93.78 77.34,87.85 C74.74,81.68 76.9,76.17 81.07,71.27 C83.17,68.8 85.28,66.31 86.65,63.31 C87.43,62.46 87.33,61.64 86.58,60.84 C85.89,59.23 85.5,57.44 84.1,56.23 C82.06,54.44 80.02,52.64 77.89,50.95 C74.13,47.96 71.47,44.4 71.38,39.37 C70.78,35.53 71.51,31.66 70.99,27.83 C71.04,25.04 70.12,22.42 69.55,19.74 C65.7,11.07 58.88,5.95 49.95,3.35 C47.44,2.72 44.93,2.22 42.33,2.73 C38.93,2.59 35.48,3.17 32.15,2.02 C27.67,0.25 23.33,1.14 19,2.62 C17.72,2.98 16.45,3.35 15.17,3.71 C13.74,4.5 11.97,4.55 10.75,5.78 C10.75,5.78 5.56,9.18 0.43,14.5 C0.75,14.85 7.49,7.88 11.39,5.6 C11.39,5.6 15.5,2.71 18.05,3.21 C15.08,4.99 13.32,9.33 10.76,10.87 C10.76,10.87 10.76,10.87 10.76,10.87 C6.51,13.8 2.29,16.72 1.08,22.27 C0.25,26.04 1.02,27.53 4.68,28.49 C10.9,30.14 16.85,29.05 22.22,25.86 C25.65,23.83 29.08,23.18 32.88,23.56 C34.32,24.41 35.2,23.33 36.09,22.55 C37.09,21.68 37.98,20.69 39.19,20.09 C41.21,17.69 41.36,14.77 41.49,11.85 C41.1,11.11 40.52,10.34 41.16,9.75 C40.99,11.6 43.01,14.97 44.25,15.89 C49,19.42 58.22,21.88 58.08,23.43 C58.43,24.24 59.06,24.85 59.88,25.04 C63.5,25.89 63.96,28.54 64.1,31.69 C64.24,35.01 63.81,38.33 64.33,41.64 C65.02,43.33 64.63,45.2 65.23,46.89 C66.93,51.71 64.43,68.36 62.12,73.69 C58.57,81.88 55.19,102.7 54.88,104 C53.83,108.3 54.25,109.07 58.22,110 C60.08,109.85 79,108.28 79.68,107.58 C76.45,105.91 72.59,105.03 70.97,100.78z "/></g><g id="_R_G_L_0_G_L_9_G" transform=" translate(231.589, 190.184) translate(-15.211, -20.94)"><path id="_R_G_L_0_G_L_9_G_D_0_P_0" fill="#8c381d" fill-opacity="1" fill-rule="nonzero" d=" M20.96 3.68 C19.29,11.18 11.46,14.43 10.33,15.98 C7.93,17.15 5.75,16.73 3.28,16.77 C1.34,16.81 0.25,17.17 0.44,19.28 C0.7,21.39 2.64,35.85 3.74,40.88 C7.99,41.51 18.51,40.43 18.67,40.08 C11.68,36.57 16.88,25.95 16.96,25.4 C18.84,28.12 19.58,36.45 22.73,37.84 C25.2,38.93 29.04,38.29 30.42,36.83 C21.06,35.19 20.13,19.87 21.52,14.24 C23.84,4.79 21.72,0.25 20.96,3.68z "/></g><g id="_R_G_L_0_G_L_8_G" transform=" translate(159.476, 136.545) translate(-4.462, -7.138)"><path id="_R_G_L_0_G_L_8_G_D_0_P_0" fill="#3e2e30" fill-opacity="1" fill-rule="nonzero" d=" M13.92 2.07 C12.36,5.7 12.09,10.5 13.27,14.22 C13.12,14.58 12.87,14.83 12.52,14.99 C10.78,15.4 9.21,15.2 7.96,13.78 C5.39,10.39 5.5,5.73 7.58,2.06 C9.69,0.5 11.81,0.98 13.92,2.07z "/></g><g id="_R_G_L_0_G_L_7_G" transform=" translate(218.361, 148.446) translate(-24.132, -37.982)"><path id="_R_G_L_0_G_L_7_G_D_0_P_0" fill="#fbc698" fill-opacity="1" fill-rule="nonzero" d=" M46.92 30.72 C46.94,28 46.82,25.27 46.99,22.56 C47.3,17.68 40.88,11.58 40.55,11.34 C39.44,9.53 36.58,9.79 34.86,9.29 C29.88,7.84 25.92,5.27 23.67,0.45 C23.39,0.26 23.12,0.25 22.85,0.46 C22.14,3.09 21.42,5.71 20.71,8.34 C19.83,10.08 18.95,11.81 18.07,13.54 C14.86,16.97 9.97,17.36 5.78,18.76 C5.39,20.1 1.29,27.65 1.05,33.71 C0.25,35.97 2.15,53.01 5,58.59 C5,58.59 5,58.59 5,58.59 C6.49,62.05 9.19,64.48 11.97,66.84 C14.63,70.1 17.77,72.55 22.1,73.09 C25.57,74.41 28.57,75.71 32.85,75.05 C34.89,75.07 38.91,71.39 39.48,70.72 C43.76,62.99 47.93,55.29 47.98,46.03 C48.01,40.87 47.14,35.83 46.92,30.72z  M29.69 51.21 C29.4,51.51 29.1,51.97 28.72,51.95 C25.51,51.81 23.36,48.44 24.53,45.44 C25.02,44.16 25.98,43.09 26.32,41.77 C26.77,40.03 27.61,38.12 25.42,36.85 C25.88,36.29 25.96,35.72 25.83,35.16 C26.5,35.88 26.6,36.94 26.83,37.88 C27.49,40.51 28.03,43.18 28.67,45.83 C28.66,47.68 31.57,48.99 29.69,51.21z "/></g><g id="_R_G_L_0_G_L_6_G" transform=" translate(200.497, 174.604) translate(-27, -46.172)"><path id="_R_G_L_0_G_L_6_G_D_0_P_0" fill="#efa579" fill-opacity="1" fill-rule="nonzero" d=" M26.27 40.01 C23.98,34.74 21.59,24.61 22.14,21.64 C21.59,18.92 24.15,9.48 24.01,8.25 C24,8.13 24.04,8.02 24.13,7.94 C24.44,7.68 24.8,7.5 25.1,7.22 C25.64,6.73 26.13,6.2 26.45,5.54 C26.74,3.96 28.23,2.4 26.52,0.8 C20.4,0.25 16.01,10.01 15.71,15.45 C15.42,20.7 15.56,25.94 17.38,30.99 C17.65,31.73 17.98,32.88 17.12,33.28 C16.08,33.77 15.43,32.79 14.98,31.93 C14.64,31.29 14.37,30.6 14.08,29.93 C13.02,27.54 12.23,25.02 10.01,23.32 C6.4,20.56 1.97,22.12 1.15,26.58 C0.25,31.44 5.63,41.84 8.23,40.56 C11.83,35.76 25.35,44.49 25.88,54.31 C25.56,63.61 23.49,72.49 19.78,81.01 C19.78,81.01 19.71,81.05 19.71,81.05 C19.38,81.44 18.94,81.98 18.62,82.38 C18.28,83.27 17.46,83.84 16.89,84.58 C15.82,85.96 14.22,86.86 13.5,88.59 C15.94,92.09 18.84,91.99 22.53,90.51 C25.73,89.22 28.12,86.92 30.22,84.22 C33.8,79.6 34.76,69.83 36.46,68.62 C38.76,61.96 50.62,57.65 53.75,57.09 C45.03,57.68 33.26,52.15 26.27,40.01z "/></g><g id="_R_G_L_0_G_L_5_G" transform=" translate(233.042, 147.603) translate(-6.888, -4.289)"><path id="_R_G_L_0_G_L_5_G_D_0_P_0" fill="#683e2e" fill-opacity="1" fill-rule="nonzero" d=" M1.09 0.25 C2.11,4.66 5.14,6.15 8.56,3.7 C12.21,1.09 12.29,1.13 13.53,6.26 C11.49,4.64 10.18,5.31 8.62,6.82 C7.07,8.33 4.88,8 3.13,6.78 C0.86,5.19 0.25,2.93 1.09,0.25z "/></g><g id="_R_G_L_0_G_L_4_G" transform=" translate(232.618, 135.08) translate(-7.178, -2.002)"><path id="_R_G_L_0_G_L_4_G_D_0_P_0" fill="#452417" fill-opacity="1" fill-rule="nonzero" d=" M14.98 4.04 C11.16,4.04 6.34,4.21 2.59,4.14 C1.58,4.12 0.06,4.5 0.13,2.62 C0.19,1.01 1.46,0.99 2.45,0.96 C5.37,0.85 4.28,0.97 7.2,0.95 C9.51,0.94 12.87,1.55 14.98,4.04z "/></g><g id="_R_G_L_0_G_L_3_G" transform=" translate(221.845, 171.973) translate(-5.108, -1.464)"><path id="_R_G_L_0_G_L_3_G_D_0_P_0" fill="#e89d69" fill-opacity="1" fill-rule="nonzero" d=" M0.25 0.82 C3.48,0.41 6.72,0.44 9.97,0.25 C6.88,2.68 3.6,2.43 0.25,0.82z "/></g><g id="_R_G_L_0_G_L_2_G" transform=" translate(221.678, 154.355) translate(-6.093, -10.207)"><path id="_R_G_L_0_G_L_2_G_D_0_P_0" fill="#efa579" fill-opacity="1" fill-rule="nonzero" d=" M9.59 14.7 C8.93,14.12 8.28,13.33 8.29,12.29 C8.29,12.29 8.29,12.29 8.29,12.29 C8.29,12.29 8.29,12.29 8.29,12.29 C7.65,9.34 7.12,6.35 6.32,3.44 C5.97,2.17 6.01,0.32 3.91,0.25 C3.27,1.28 4.08,2.31 3.92,3.34 C5.04,5.39 4.67,7.27 3.46,9.18 C0.25,14.25 0.71,15.67 5.69,18.97 C7.5,20.16 9.36,18.98 10.13,17.39 C11.94,16.55 11.31,16.23 9.59,14.7z "/></g><g id="_R_G_L_0_G_L_1_G" transform=" translate(203.304, 147.202) translate(-10.034, -4.453)"><path id="_R_G_L_0_G_L_1_G_D_0_P_0" fill="#60362f" fill-opacity="1" fill-rule="nonzero" d=" M18.5 0.25 C16.37,6.87 9.2,5.13 4.18,2.57 C2.94,2.11 1.4,3.58 0.74,4.87 C0.25,5.82 1.46,6.1 2.09,6.53 C4.07,4.23 5.98,4.72 7.87,6.65 C9.47,8.66 14.39,8.63 16.07,7.29 C16.33,7.1 19.82,3.24 18.5,0.25z "/></g><g id="_R_G_L_0_G_L_0_G" transform=" translate(204.761, 136.253) translate(-9.927, -2.743)"><path id="_R_G_L_0_G_L_0_G_D_0_P_0" fill="#59342b" fill-opacity="1" fill-rule="nonzero" d=" M17.34 0.94 C17.34,0.94 10.09,0.25 8.2,1.11 C8.2,1.11 8.86,0.89 8.2,1.11 C7.54,1.34 1.23,3.36 0.25,5.24 C1.39,5.06 2.47,4.9 3.56,4.73 C4.68,4.32 9.85,3.87 11.31,3.98 C13.4,4.14 15.51,4.42 17.57,3.85 C18.4,3.62 19.6,3.58 19.46,2.19 C19.32,0.86 17.34,0.94 17.34,0.94z "/></g></g></g><g id="time_group"/></svg>